<svg xmlns="http://www.w3.org/2000/svg" version="1.1" xmlns:xlink="http://www.w3.org/1999/xlink" xmlns:svgjs="http://svgjs.dev/svgjs" width="1500" height="212" viewBox="0 0 1500 212"><g transform="matrix(1,0,0,1,-0.9090909090909918,-0.14948966091752425)"><svg viewBox="0 0 396 56" data-background-color="#61777f" preserveAspectRatio="xMidYMid meet" height="212" width="1500" xmlns="http://www.w3.org/2000/svg" xmlns:xlink="http://www.w3.org/1999/xlink"><g id="tight-bounds" transform="matrix(1,0,0,1,0.2400000000000091,0.03948783495934549)"><svg viewBox="0 0 395.52 55.92102433008132" height="55.92102433008132" width="395.52"><g><svg viewBox="0 0 503.1429153064299 71.13740697906279" height="55.92102433008132" width="395.52"><g><rect width="6.383328134503368" height="71.13740697906279" x="84.52930409731046" y="0" fill="#ffffff" opacity="1" stroke-width="0" stroke="transparent" fill-opacity="1" class="rect-qz-0" data-fill-palette-color="primary" rx="1%" id="qz-0" data-palette-color="#ffffff"></rect></g><g transform="matrix(1,0,0,1,107.62291530642997,0.17695872382851263)"><svg viewBox="0 0 395.52 70.78348953140576" height="70.78348953140576" width="395.52"><g id="textblocktransform"><svg viewBox="0 0 395.52 70.78348953140576" height="70.78348953140576" width="395.52" id="textblock"><g><svg viewBox="0 0 395.52 70.78348953140576" height="70.78348953140576" width="395.52"><g transform="matrix(1,0,0,1,0,0)"><svg width="395.52" viewBox="1.95 -35 200.59 35.9" height="70.78348953140576" data-palette-color="#ffffff"><path d="M31.2-29.3L28.35-26.4 27.65-26.45Q26.4-29.85 24.1-31.38 21.8-32.9 18.7-32.9L18.7-32.9Q15.3-32.9 12.95-31.55 10.6-30.2 9.15-27.9 7.7-25.6 7.05-22.83 6.4-20.05 6.4-17.2L6.4-17.2Q6.4-14.9 7.08-12.65 7.75-10.4 8.7-8.65 9.65-6.9 10.45-6.05L10.45-6.05Q12.5-4 14.43-2.95 16.35-1.9 19.4-1.9L19.4-1.9Q21.95-1.9 24.3-2.88 26.65-3.85 28.75-5.25L28.75-5.25 29.6-3.8Q26.9-1.95 23.9-0.6 20.9 0.75 17.65 0.75L17.65 0.75Q14.7 0.75 11.8-0.03 8.9-0.8 6.75-2.95L6.75-2.95Q4.15-5.6 3.05-9.13 1.95-12.65 1.95-16.3L1.95-16.3Q1.95-19.9 2.93-23.4 3.9-26.9 6.5-29.5L6.5-29.5Q9.25-32.25 12.88-33.6 16.5-34.95 20.4-34.95L20.4-34.95Q23.7-34.95 26.48-33.73 29.25-32.5 31.2-29.3L31.2-29.3ZM33.7-15.9L33.7-15.9Q33.7-20.75 34.85-24.18 36-27.6 38.75-30.6L38.75-30.6Q40.35-32.3 42.5-33.25 44.65-34.2 47.07-34.6 49.5-35 51.8-35L51.8-35Q54.6-35 57.4-34.13 60.2-33.25 62.2-31.2L62.2-31.2Q63.75-29.65 64.67-27.48 65.6-25.3 66-22.93 66.4-20.55 66.4-18.2L66.4-18.2Q66.4-15.75 66.12-13.2 65.85-10.65 64.35-7.6L64.35-7.6Q63.15-5.15 60.7-3.23 58.25-1.3 54.92-0.2 51.6 0.9 47.65 0.9L47.65 0.9Q43.8 0.9 41.12-0.55 38.45-2 36.82-4.42 35.2-6.85 34.45-9.83 33.7-12.8 33.7-15.9ZM38.35-17.4L38.35-17.4Q38.35-13.9 39.17-10.73 40-7.55 42.3-5L42.3-5Q44.55-2.5 46.7-1.83 48.85-1.15 50.3-1.15L50.3-1.15Q53.4-1.15 55.57-2.53 57.75-3.9 59.1-6.18 60.45-8.45 61.07-11.23 61.7-14 61.7-16.8L61.7-16.8Q61.7-19.45 61.07-22.3 60.45-25.15 59.1-27.58 57.75-30 55.55-31.5 53.35-33 50.2-33L50.2-33Q46.95-33 44.7-31.65 42.45-30.3 41.05-28.05 39.65-25.8 39-23.03 38.35-20.25 38.35-17.4ZM92.59-2.9L93.09-2.4 92.4 0.25Q91 0.1 88.59 0.03 86.2-0.05 83.27-0.08 80.34-0.1 77.34-0.1 74.34-0.1 71.75-0.1L71.75-0.1 71.75-0.8Q72.34-1.65 72.59-3.43 72.84-5.2 72.84-7.15L72.84-7.15 72.84-31.05Q72.84-31.6 72.59-32.1 72.34-32.6 71.8-32.7L71.8-32.7Q71.3-32.8 70.62-32.95 69.95-33.1 69.45-33.2 68.95-33.3 68.9-33.3L68.9-33.3 68.95-34.15 69.3-34.5 81.15-34.5 81.45-34.2 81.45-33.15Q81.45-33.15 80.84-33.02 80.25-32.9 79.5-32.75 78.75-32.6 78.2-32.45L78.2-32.45Q77.75-32.4 77.55-32 77.34-31.6 77.3-31.2L77.3-31.2Q77-25.75 77-19.65L77-19.65Q77-15.4 77.09-11.13 77.2-6.85 77.34-2.8L77.34-2.8Q77.4-2.6 77.59-2.38 77.8-2.15 78-2.15L78-2.15Q79.95-2.15 82.4-2.25 84.84-2.35 87.15-2.5 89.45-2.65 90.97-2.78 92.5-2.9 92.59-2.9L92.59-2.9ZM117.29-2.9L117.79-2.4 117.09 0.25Q115.69 0.1 113.29 0.03 110.89-0.05 107.97-0.08 105.04-0.1 102.04-0.1 99.04-0.1 96.44-0.1L96.44-0.1 96.44-0.8Q97.04-1.65 97.29-3.43 97.54-5.2 97.54-7.15L97.54-7.15 97.54-31.05Q97.54-31.6 97.29-32.1 97.04-32.6 96.49-32.7L96.49-32.7Q95.99-32.8 95.32-32.95 94.64-33.1 94.14-33.2 93.64-33.3 93.59-33.3L93.59-33.3 93.64-34.15 93.99-34.5 105.84-34.5 106.14-34.2 106.14-33.15Q106.14-33.15 105.54-33.02 104.94-32.9 104.19-32.75 103.44-32.6 102.89-32.45L102.89-32.45Q102.44-32.4 102.24-32 102.04-31.6 101.99-31.2L101.99-31.2Q101.69-25.75 101.69-19.65L101.69-19.65Q101.69-15.4 101.79-11.13 101.89-6.85 102.04-2.8L102.04-2.8Q102.09-2.6 102.29-2.38 102.49-2.15 102.69-2.15L102.69-2.15Q104.64-2.15 107.09-2.25 109.54-2.35 111.84-2.5 114.14-2.65 115.67-2.78 117.19-2.9 117.29-2.9L117.29-2.9ZM138.74-19.2L138.44-16.8Q136.99-16.9 135.49-17 133.99-17.1 132.54-17.1L132.54-17.1Q131.09-17.1 129.59-17.1 128.09-17.1 127.09-16.95 126.09-16.8 126.09-16.35L126.09-16.35 126.09-9.4Q126.09-8 126.22-6.38 126.34-4.75 126.84-3.8L126.84-3.8Q127.39-2.85 128.37-2.53 129.34-2.2 131.64-2.2L131.64-2.2Q132.54-2.2 133.34-2.23 134.14-2.25 135.29-2.3 136.44-2.35 138.37-2.5 140.29-2.65 143.34-2.9L143.34-2.9 143.59-2.65 142.94 0 123.54 0Q122.79-0.4 122.52-1.35 122.24-2.3 122.24-3.3L122.24-3.3 122.24-27.9Q122.24-28.45 122.19-29.4 122.14-30.35 121.79-31.1L121.79-31.1Q121.59-31.6 120.67-32.02 119.74-32.45 117.99-32.7L117.99-32.7 117.94-33.7 118.29-34.05 125.69-34.1Q127.44-34.1 129.59-34.18 131.74-34.25 133.89-34.33 136.04-34.4 137.79-34.4L137.79-34.4Q138.49-34.4 139.04-34.4 139.59-34.4 140.09-34.35L140.09-34.35 139.99-31.85 139.79-31.5Q138.49-31.6 136.77-31.68 135.04-31.75 133.39-31.83 131.74-31.9 130.62-31.95 129.49-32 129.34-32L129.34-32 127.34-32Q126.59-31.85 126.37-30.68 126.14-29.5 126.14-28.2L126.14-28.2 126.14-19.9Q126.14-19.25 127.09-19.23 128.04-19.2 129.44-19.2L129.44-19.2Q131.44-19.2 133.94-19.3 136.44-19.4 138.44-19.55L138.44-19.55 138.74-19.2ZM160.04-13.5L160.04-14.8 173.84-15.35Q173.89-13.65 173.91-11.33 173.94-9 173.99-6.8 174.04-4.6 174.06-3.13 174.09-1.65 174.09-1.65L174.09-1.65Q171.89-1.1 169.46-0.5 167.04 0.1 164.76 0.48 162.49 0.85 160.64 0.85L160.64 0.85Q157.79 0.85 155.11-0.15 152.44-1.15 150.39-3.15L150.39-3.15Q147.84-5.7 146.79-9.18 145.74-12.65 145.74-16.2L145.74-16.2Q145.74-19.9 146.74-23.48 147.74-27.05 150.34-29.65L150.34-29.65Q153.14-32.45 156.89-33.7 160.64-34.95 164.59-34.95L164.59-34.95Q167.84-34.95 170.44-33.65 173.04-32.35 175.04-29.3L175.04-29.3 172.14-26.45 171.54-26.5Q169.89-29.8 167.64-31.15 165.39-32.5 162.34-32.5L162.34-32.5Q158.84-32.5 156.49-31.18 154.14-29.85 152.76-27.6 151.39-25.35 150.81-22.6 150.24-19.85 150.24-17L150.24-17Q150.24-14.25 151.04-11.55 151.84-8.85 153.51-6.63 155.19-4.4 157.84-3.08 160.49-1.75 164.14-1.75L164.14-1.75Q166.64-1.75 168.84-2.25L168.84-2.25Q169.49-2.4 169.69-3.18 169.89-3.95 169.86-4.95 169.84-5.95 169.84-6.7L169.84-6.7Q169.84-7.1 169.89-8.03 169.94-8.95 169.86-10.05 169.79-11.15 169.46-11.95 169.14-12.75 168.44-12.8L168.44-12.8Q166.79-12.95 164.59-13.08 162.39-13.2 160.34-13.25L160.34-13.25 160.04-13.5ZM197.69-19.2L197.39-16.8Q195.94-16.9 194.44-17 192.94-17.1 191.49-17.1L191.49-17.1Q190.04-17.1 188.54-17.1 187.04-17.1 186.04-16.95 185.04-16.8 185.04-16.35L185.04-16.35 185.04-9.4Q185.04-8 185.16-6.38 185.29-4.75 185.79-3.8L185.79-3.8Q186.34-2.85 187.31-2.53 188.29-2.2 190.59-2.2L190.59-2.2Q191.49-2.2 192.29-2.23 193.09-2.25 194.24-2.3 195.39-2.35 197.31-2.5 199.24-2.65 202.29-2.9L202.29-2.9 202.54-2.65 201.89 0 182.49 0Q181.74-0.4 181.46-1.35 181.19-2.3 181.19-3.3L181.19-3.3 181.19-27.9Q181.19-28.45 181.14-29.4 181.09-30.35 180.74-31.1L180.74-31.1Q180.54-31.6 179.61-32.02 178.69-32.45 176.94-32.7L176.94-32.7 176.89-33.7 177.24-34.05 184.64-34.1Q186.39-34.1 188.54-34.18 190.69-34.25 192.84-34.33 194.99-34.4 196.74-34.4L196.74-34.4Q197.44-34.4 197.99-34.4 198.54-34.4 199.04-34.35L199.04-34.35 198.94-31.85 198.74-31.5Q197.44-31.6 195.71-31.68 193.99-31.75 192.34-31.83 190.69-31.9 189.56-31.95 188.44-32 188.29-32L188.29-32 186.29-32Q185.54-31.85 185.31-30.68 185.09-29.5 185.09-28.2L185.09-28.2 185.09-19.9Q185.09-19.25 186.04-19.23 186.99-19.2 188.39-19.2L188.39-19.2Q190.39-19.2 192.89-19.3 195.39-19.4 197.39-19.55L197.39-19.55 197.69-19.2Z" opacity="1" transform="matrix(1,0,0,1,0,0)" fill="#ffffff" class="wordmark-text-0" data-fill-palette-color="primary" id="text-0"></path></svg></g></svg></g></svg></g></svg></g><g transform="matrix(1,0,0,1,0,0.17695872382851263)"><svg viewBox="0 0 67.81902102269432 70.78348953140576" height="70.78348953140576" width="67.81902102269432"><g><svg xmlns="http://www.w3.org/2000/svg" xmlns:xlink="http://www.w3.org/1999/xlink" version="1.1" x="0" y="0" viewBox="7.222 5.352 85.55600000000001 89.29577777777779" enable-background="new 0 0 100 100" xml:space="preserve" height="70.78348953140576" width="67.81902102269432" class="icon-icon-0" data-fill-palette-color="accent" id="icon-0"><g fill="#ffffff" data-fill-palette-color="accent"><g fill="#ffffff" data-fill-palette-color="accent"><path d="M64.004 13.952l-39.124-8.6L7.222 34.782l13.652 2.912c1.601-2.041 4.647-5.181 9.699-7.948 0.486-0.299 0.959-0.573 1.401-0.799 0.449-0.23 0.97-0.448 1.522-0.66 1.489-0.662 3.116-1.28 4.894-1.829 7.592-2.339 17.506-1.143 25.614 2.897V13.952z" fill="#ffffff" data-fill-palette-color="accent"></path><path d="M65.778 14.342v15.985c0.363 0.208 0.749 0.384 1.103 0.604 2.782 1.729 5.949 4.262 8.518 7.8l17.379-18.454L65.778 14.342z" fill="#ffffff" data-fill-palette-color="accent"></path></g><g fill="#ffffff" data-fill-palette-color="accent"><path d="M62.906 41.347v-3.643c0-0.761 0.454-1.406 1.098-1.715v-3.44c-7.698-4.27-17.448-5.673-24.786-3.409-12.981 4.005-17.288 11.937-17.33 12.016l-0.001-0.001c-1.361 3.989-2.565 10.101-2.565 10.101 6.78-6.78 16.754-5.065 16.754-5.065 12.489-4.175 21.273-3.574 27.125-1.724l0.159-1.926C63.09 42.211 62.906 41.806 62.906 41.347z" fill="#ffffff" data-fill-palette-color="accent"></path><path d="M64.821 36.677c-0.567 0-1.028 0.461-1.028 1.027v3.643c0 0.567 0.461 1.028 1.028 1.028s1.028-0.461 1.028-1.028v-3.643C65.849 37.138 65.388 36.677 64.821 36.677z" fill="#ffffff" data-fill-palette-color="accent"></path><path d="M65.778 33.563v2.521c0.562 0.334 0.958 0.921 0.958 1.62v3.643c0 0.592-0.286 1.101-0.709 1.453l0.235 2.844c4.62 2.143 6.596 4.832 6.596 4.832 1.13-3.686 1.667-6.407 1.86-7.496C72.329 38.578 68.845 35.534 65.778 33.563z" fill="#ffffff" data-fill-palette-color="accent"></path></g><g fill="#ffffff" data-fill-palette-color="accent"><path d="M64.247 43.249c0 0-4.822 50.185-3.841 51.025 0.982 0.841 3.083 0 3.083 0s-0.14-3.083 0.841-2.943c0.982 0.14 1.121 0.141 1.542-1.681 0.42-1.822 0.281-1.261 0.981-4.204 0.701-2.943-1.321-41.017-1.671-42.138L64.247 43.249z" fill="#ffffff" data-fill-palette-color="accent"></path></g></g></svg></g></svg></g></svg></g><defs></defs></svg><rect width="395.52" height="55.92102433008132" fill="none" stroke="none" visibility="hidden"></rect></g></svg></g></svg>